<svg width="202" height="43" viewBox="0 0 202 43" fill="none" xmlns="http://www.w3.org/2000/svg">
<path d="M2.00311 0.305695C1.66498 0.486344 1.25639 0.805954 1.10141 1.01439C0.805542 1.40348 0.805542 1.48686 0.805542 16.3001V31.1967L1.12959 31.7247C1.55226 32.3778 2.144 32.6835 3.00344 32.6835C3.77834 32.6835 4.42643 32.3639 4.87728 31.7803C5.15906 31.4051 5.17315 31.1828 5.2436 26.7499C5.31404 22.1503 5.31404 22.0947 5.63809 21.789C5.94805 21.4833 6.04668 21.4694 9.72392 21.386C13.9366 21.2888 14.7537 21.1498 16.6557 20.2327C20.3612 18.4262 22.3055 15.2301 22.3055 10.9084C22.3055 6.47555 20.2344 2.97374 16.543 1.12556C14.6833 0.194527 13.0912 -1.83433e-05 7.3006 -1.83433e-05C2.73574 -1.83433e-05 2.60894 0.0138777 2.00311 0.305695ZM12.5699 4.1688C15.1341 4.57179 17.2475 6.51724 17.8533 9.06022C18.7973 12.9928 16.5008 16.6336 12.7108 17.2172C12.2036 17.3006 10.5974 17.3701 9.14627 17.3701C6.32846 17.3701 5.69445 17.2589 5.39858 16.7031C5.29996 16.5085 5.2436 14.5214 5.2436 10.6722C5.2436 4.44672 5.22951 4.61348 6.0185 4.19659C6.38481 3.98815 11.3301 3.97426 12.5699 4.1688Z" fill="#2E4C54"/>
<path d="M126.691 2.75141C126.424 2.87647 126.057 3.20998 125.874 3.46011L125.55 3.94647L125.606 15.3412C125.649 28.0423 125.578 27.139 126.649 29.0289C127.607 30.7381 129.396 32.0999 131.27 32.5168C131.665 32.6141 132.581 32.6974 133.327 32.6974C134.567 32.7252 134.722 32.6974 135.243 32.35C136.201 31.7247 136.526 30.5852 136.018 29.6125C135.582 28.751 135.173 28.5703 133.482 28.4869C131.778 28.4036 131.383 28.2229 130.622 27.1946C129.833 26.1107 129.791 25.7633 129.791 19.7741V14.3129H131.763C133.947 14.3129 134.469 14.1879 134.976 13.5487C135.638 12.7149 135.441 11.5198 134.553 10.9779C134.144 10.7278 133.849 10.7 131.947 10.7H129.791V7.3927C129.791 3.59907 129.735 3.37673 128.664 2.82089C127.931 2.4318 127.354 2.4179 126.691 2.75141Z" fill="#2E4C54"/>
<path d="M44.848 9.7967C43.2559 10.158 41.4807 11.1029 40.424 12.1729L39.9027 12.701V12.0479C39.9027 10.6166 39.1842 9.86618 37.7894 9.86618C36.8454 9.86618 36.4227 10.0607 36 10.6861L35.676 11.1585V21.2888C35.676 32.4473 35.6478 32.0026 36.5495 32.4612C37.1272 32.753 38.522 32.753 38.9869 32.4612C39.8605 31.9053 39.8323 32.1555 39.9027 24.3181C39.9732 17.384 39.9873 17.1477 40.269 16.5224C40.734 15.5497 41.4807 14.8271 42.6219 14.2573C44.3971 13.368 46.3132 13.1457 48.9197 13.5347C49.5819 13.632 50.3286 13.6598 50.5822 13.6042C51.4276 13.4236 51.9771 12.3814 51.7235 11.4642C51.5544 10.8667 50.9063 10.3664 49.8214 9.97735C48.7366 9.60216 46.1442 9.50489 44.848 9.7967Z" fill="#2E4C54"/>
<path d="M88.0169 9.78281C87.7915 9.88008 87.4393 10.1441 87.242 10.3525L86.8898 10.7277L86.8475 20.9552C86.8194 30.5018 86.8334 31.2244 87.0589 31.6691C87.5943 32.6974 88.8341 33.0726 89.9471 32.5307C91.1588 31.9609 91.1024 32.2666 91.187 24.3876L91.2574 17.4395L91.7364 16.5641C93.2581 13.7849 97.1044 12.7288 100.556 14.1323C101.655 14.577 102.937 15.7025 103.43 16.6336C104.107 17.9537 104.149 18.4401 104.149 24.5404C104.149 27.8199 104.205 30.5713 104.29 31.0021C104.459 31.8498 104.924 32.4334 105.671 32.6696C106.276 32.8642 107.164 32.7252 107.699 32.3639C108.531 31.7803 108.517 31.8498 108.517 25.0407C108.517 21.3026 108.46 18.4817 108.362 17.9815C107.516 13.229 104.403 10.2692 99.6686 9.72722C97.7525 9.51878 88.5382 9.56047 88.0169 9.78281Z" fill="#2E4C54"/>
<path d="M157.265 9.72723C154.221 10.0191 151.347 11.5615 150.403 13.4097C149.713 14.7298 149.657 16.4946 150.248 18.051C150.474 18.6207 150.798 19.0793 151.488 19.7602C152.967 21.2193 154.405 21.8168 158.955 22.859C162.562 23.6928 164.112 24.9851 163.605 26.7638C163.14 28.3897 161.322 29.14 158.223 29.015C156.011 28.9177 154.405 28.3341 152.953 27.0695C152.122 26.3469 151.418 26.0829 150.812 26.2636C148.769 26.8333 148.205 28.5703 149.628 29.9043C151.826 31.9887 156.419 33.2394 160.294 32.8086C162.661 32.5446 164.154 32.0165 165.507 30.9604C166.859 29.9043 167.578 28.6954 167.86 27.0278C168.17 25.1797 167.451 23.0675 166.084 21.8724C164.788 20.7051 162.943 19.9964 158.969 19.1071C155.349 18.3011 154.024 17.4673 154.024 15.9944C154.024 14.3824 155.56 13.4792 158.349 13.4653C160.618 13.4514 161.689 13.7988 163.506 15.1189C164.084 15.5497 164.675 15.8554 165 15.911C165.746 16.036 166.563 15.7859 167.042 15.2996C168.747 13.5487 164.732 10.1858 160.463 9.79671C158.716 9.64386 158.307 9.62996 157.265 9.72723Z" fill="#2E4C54"/>
<path d="M67.2778 9.88008C66.6578 10.0051 66.1506 10.3525 65.8266 10.8806C65.5589 11.3114 65.5448 11.6588 65.5448 21.261C65.5448 30.6964 65.5589 31.2244 65.8125 31.683C66.2915 32.5863 67.4468 32.9337 68.6726 32.5307C69.0952 32.3917 69.2643 32.225 69.5602 31.6274L69.9265 30.9048L69.9124 21.3165C69.9124 12.7844 69.8842 11.6727 69.6729 11.1029C69.3488 10.1719 68.3203 9.65774 67.2778 9.88008Z" fill="#2E4C54"/>
<path d="M179.793 10.1858C179.173 10.5888 178.793 11.3253 178.877 11.9228C178.934 12.2702 185.33 24.457 188.162 29.6264L188.599 30.4046L186.387 35.3238C184.569 39.3675 184.175 40.3542 184.175 40.8822C184.175 41.7299 184.64 42.2857 185.612 42.6053C186.471 42.8832 187.232 42.7165 187.669 42.1745C187.824 41.98 190.938 35.1848 194.601 27.0695C201.645 11.4364 201.589 11.6032 201.039 10.7833C200.715 10.297 199.8 9.86618 199.109 9.86618C198.264 9.86618 197.757 10.1858 197.348 10.964C197.01 11.631 190.895 25.1519 190.628 25.8467C190.515 26.1524 190.05 25.3047 186.556 18.4817C182.188 9.93566 182.146 9.86618 180.962 9.86618C180.483 9.86618 180.131 9.96345 179.793 10.1858Z" fill="#2E4C54"/>
</svg>
